<svg width="19" height="23" viewBox="0 0 19 23" fill="none" xmlns="http://www.w3.org/2000/svg">
<path d="M9.5 11.5C10.1531 11.5 10.7122 11.2748 11.1773 10.8244C11.6424 10.374 11.875 9.8325 11.875 9.2C11.875 8.5675 11.6424 8.02604 11.1773 7.57562C10.7122 7.12521 10.1531 6.9 9.5 6.9C8.84688 6.9 8.28776 7.12521 7.82266 7.57562C7.35755 8.02604 7.125 8.5675 7.125 9.2C7.125 9.8325 7.35755 10.374 7.82266 10.8244C8.28776 11.2748 8.84688 11.5 9.5 11.5ZM9.5 19.9525C11.9146 17.8058 13.7057 15.8556 14.8734 14.1019C16.0411 12.3481 16.625 10.7908 16.625 9.43C16.625 7.34083 15.9372 5.63021 14.5617 4.29813C13.1862 2.96604 11.499 2.3 9.5 2.3C7.50104 2.3 5.8138 2.96604 4.43828 4.29813C3.06276 5.63021 2.375 7.34083 2.375 9.43C2.375 10.7908 2.95885 12.3481 4.12656 14.1019C5.29427 15.8556 7.08542 17.8058 9.5 19.9525ZM9.5 23C6.31354 20.3742 3.93359 17.9352 2.36016 15.6831C0.786719 13.431 0 11.3467 0 9.43C0 6.555 0.954948 4.26458 2.86484 2.55875C4.77474 0.852917 6.98646 0 9.5 0C12.0135 0 14.2253 0.852917 16.1352 2.55875C18.0451 4.26458 19 6.555 19 9.43C19 11.3467 18.2133 13.431 16.6398 15.6831C15.0664 17.9352 12.6865 20.3742 9.5 23Z" fill="white"/>
</svg>
